<?xml version="1.0" encoding="UTF-8" ?>
<!DOCTYPE svg PUBLIC "-//W3C//DTD SVG 1.1//EN" "http://www.w3.org/Graphics/SVG/1.1/DTD/svg11.dtd">
<svg width="135pt" height="135pt" viewBox="0 0 135 135" version="1.1" xmlns="http://www.w3.org/2000/svg">
<g id="#7abb3bff">
<path fill="#7abb3b" opacity="1.00" d=" M 0.00 0.00 L 135.00 0.00 L 135.00 92.58 C 129.42 88.34 124.81 83.03 119.68 78.30 C 112.61 71.71 105.50 65.16 98.74 58.25 C 97.31 56.75 95.63 55.52 93.91 54.38 C 92.68 53.57 91.60 52.27 89.99 52.31 C 79.14 51.83 68.24 52.68 57.41 51.97 C 56.11 49.84 54.01 48.11 51.39 49.14 C 49.65 50.85 47.76 52.38 45.77 53.79 C 44.79 55.29 45.14 57.25 44.97 58.96 C 45.05 65.31 44.82 71.68 45.07 78.03 C 44.93 79.87 46.46 81.03 47.55 82.25 C 56.37 91.49 65.67 100.27 74.60 109.40 C 82.95 117.91 91.71 126.02 99.56 135.00 L 0.00 135.00 L 0.00 0.00 Z" />
<path fill="#7abb3b" opacity="1.00" d=" M 67.29 58.38 C 73.33 56.04 80.19 61.69 79.46 68.01 C 79.45 75.08 70.38 79.52 64.77 75.26 C 58.35 71.28 60.04 60.33 67.29 58.38 M 68.32 61.38 C 63.41 62.53 62.30 69.93 66.55 72.52 C 70.13 75.44 76.35 72.71 76.36 68.02 C 77.06 63.77 72.33 59.96 68.32 61.38 Z" />
</g>
<g id="#fffefeff">
<path fill="#fffefe" opacity="1.00" d=" M 45.77 53.79 C 47.76 52.38 49.65 50.85 51.39 49.14 C 54.01 48.11 56.11 49.84 57.41 51.97 C 68.24 52.68 79.14 51.83 89.99 52.31 C 91.60 52.27 92.68 53.57 93.91 54.38 C 93.94 61.89 94.26 69.42 93.84 76.92 C 93.90 79.99 90.98 82.06 88.09 81.88 C 74.59 82.30 61.05 81.58 47.55 82.25 C 46.46 81.03 44.93 79.87 45.07 78.03 C 44.82 71.68 45.05 65.31 44.97 58.96 C 45.14 57.25 44.79 55.29 45.77 53.79 M 67.29 58.38 C 60.04 60.33 58.35 71.28 64.77 75.26 C 70.38 79.52 79.45 75.08 79.46 68.01 C 80.19 61.69 73.33 56.04 67.29 58.38 Z" />
<path fill="#fffefe" opacity="1.00" d=" M 68.32 61.38 C 72.33 59.96 77.06 63.77 76.36 68.02 C 76.35 72.71 70.13 75.44 66.55 72.52 C 62.30 69.93 63.41 62.53 68.32 61.38 Z" />
</g>
<g id="#528421ff">
<path fill="#528421" opacity="1.00" d=" M 93.91 54.38 C 95.63 55.52 97.31 56.75 98.74 58.25 C 105.50 65.16 112.61 71.71 119.68 78.30 C 124.81 83.03 129.42 88.34 135.00 92.58 L 135.00 135.00 L 99.56 135.00 C 91.71 126.02 82.95 117.91 74.60 109.40 C 65.67 100.27 56.37 91.49 47.55 82.25 C 61.05 81.58 74.59 82.30 88.09 81.88 C 90.98 82.06 93.90 79.99 93.84 76.92 C 94.26 69.42 93.94 61.89 93.91 54.38 Z" />
</g>
</svg>
