<?xml version="1.0" encoding="UTF-8" standalone="no"?>
<svg
   xmlns:dc="http://purl.org/dc/elements/1.1/"
   xmlns:cc="http://creativecommons.org/ns#"
   xmlns:rdf="http://www.w3.org/1999/02/22-rdf-syntax-ns#"
   xmlns:svg="http://www.w3.org/2000/svg"
   xmlns="http://www.w3.org/2000/svg"
   xmlns:sodipodi="http://sodipodi.sourceforge.net/DTD/sodipodi-0.dtd"
   xmlns:inkscape="http://www.inkscape.org/namespaces/inkscape"
   width="650px"
   height="1080px"
   version="1.1"
   id="SVGRoot"
   sodipodi:docname="patternUM.svg"
   inkscape:version="1.0.2 (e86c870879, 2021-01-15)"
   inkscape:export-filename="/media/Datos/workspace/workspacePython/EVNQt/apm/view/resource/img/patternUM.png"
   inkscape:export-xdpi="96"
   inkscape:export-ydpi="96">
  <defs
     id="defs2028" />
  <sodipodi:namedview
     id="base"
     pagecolor="#ffffff"
     bordercolor="#666666"
     borderopacity="1.0"
     inkscape:pageopacity="0.0"
     inkscape:pageshadow="2"
     inkscape:zoom="0.35"
     inkscape:cx="249.66664"
     inkscape:cy="635.24342"
     inkscape:document-units="px"
     inkscape:current-layer="layer1"
     inkscape:document-rotation="0"
     showgrid="false"
     inkscape:window-width="1368"
     inkscape:window-height="702"
     inkscape:window-x="0"
     inkscape:window-y="0"
     inkscape:window-maximized="1" />
  <metadata
     id="metadata2031">
    <rdf:RDF>
      <cc:Work
         rdf:about="">
        <dc:format>image/svg+xml</dc:format>
        <dc:type
           rdf:resource="http://purl.org/dc/dcmitype/StillImage" />
        <dc:title />
      </cc:Work>
    </rdf:RDF>
  </metadata>
  <g
     inkscape:label="Capa 1"
     inkscape:groupmode="layer"
     id="layer1">
    <g
       id="g832"
       transform="matrix(0.18532414,0,0,0.18587533,-3001.0124,-3658.3661)"
       style="clip-rule:evenodd;fill:#a1a1a1;fill-opacity:1;fill-rule:evenodd;image-rendering:optimizeQuality;shape-rendering:geometricPrecision;text-rendering:geometricPrecision">
      <path
         class="fil11"
         d="m 19027,24230 -93,-143 -13,-20 -13,20 -93,143 v -258 -6 -60 c 0,-77 0,-98 0,-174 1,-62 1,-88 1,-107 0,-35 0,-53 0,-133 v -15 h -15 -38 c -69,0 -145,28 -201,76 -50,43 -84,101 -84,170 l -1,393 c 8,46 68,34 68,1 l 1,-333 v -65 c 0,-3 0,-5 0,-6 v 0 c 3,-46 32,-88 73,-118 38,-29 86,-48 129,-50 v 863 c 1,6 5,10 12,12 7,2 11,1 16,-4 l 145,-229 144,231 c 4,4 11,7 18,4 6,-2 9,-6 10,-12 v -607 c -1,-42 -67,-42 -67,0 z"
         id="path778"
         style="fill:#a1a1a1;fill-opacity:1" />
      <path
         class="fil11"
         d="m 17996,24230 93,-143 12,-20 13,20 93,143 v -258 -6 -60 c 0,-77 0,-98 0,-174 0,-62 -1,-88 -1,-107 0,-35 0,-53 0,-133 v -15 h 15 38 c 69,0 145,28 201,76 50,43 84,101 84,170 l 1,393 c -8,46 -67,34 -68,1 l -1,-333 v -65 c 0,-3 0,-5 0,-6 v 0 c -3,-46 -32,-88 -72,-118 -39,-29 -87,-48 -130,-50 v 863 c -1,6 -5,10 -12,12 -7,2 -11,1 -16,-4 l -145,-229 -144,231 c -4,4 -11,7 -17,4 -7,-2 -10,-6 -11,-12 v -607 c 1,-42 67,-42 67,0 z"
         id="path780"
         style="fill:#a1a1a1;fill-opacity:1" />
      <path
         class="fil11"
         d="m 19027,24584 -93,143 -13,20 -13,-20 -93,-143 v 258 6 60 c 0,77 0,98 0,174 1,62 1,88 1,107 0,35 0,53 0,133 v 15 h -15 -38 c -69,0 -145,-28 -201,-76 -50,-43 -84,-101 -84,-170 l -1,-393 c 8,-46 68,-34 68,-1 l 1,333 v 65 c 0,3 0,5 0,6 v 0 c 3,46 32,88 73,118 38,29 86,48 129,50 v -863 c 1,-6 5,-10 12,-12 7,-2 11,-1 16,4 l 145,229 144,-231 c 4,-4 11,-7 18,-4 6,2 9,6 10,12 v 607 c -1,42 -67,42 -67,0 z"
         id="path782"
         style="fill:#a1a1a1;fill-opacity:1" />
      <path
         class="fil11"
         d="m 17996,24584 93,143 12,20 13,-20 93,-143 v 258 6 60 c 0,77 0,98 0,174 0,62 -1,88 -1,107 0,35 0,53 0,133 v 15 h 15 38 c 69,0 145,-28 201,-76 50,-43 84,-101 84,-170 l 1,-393 c -8,-46 -67,-34 -68,-1 l -1,333 v 65 c 0,3 0,5 0,6 v 0 c -3,46 -32,88 -72,118 -39,29 -87,48 -130,50 v -863 c -1,-6 -5,-10 -12,-12 -7,-2 -11,-1 -16,4 l -145,229 -144,-231 c -4,-4 -11,-7 -17,-4 -7,2 -10,6 -11,12 v 607 c 1,42 67,42 67,0 z"
         id="path784"
         style="fill:#a1a1a1;fill-opacity:1" />
      <path
         class="fil11"
         d="m 19605,23611 c -21,33 -33,70 -33,112 v 393 c 3,22 18,30 33,30 z"
         id="path786"
         style="fill:#a1a1a1;fill-opacity:1" />
      <path
         class="fil11"
         d="m 19090,24230 93,-143 13,-20 13,20 93,143 v -258 -6 -60 c -1,-77 -1,-98 -1,-174 0,-62 0,-88 0,-107 -1,-35 -1,-53 -1,-133 v -15 h 16 37 c 69,0 145,28 201,76 20,17 38,36 51,58 v 535 c -16,0 -33,-12 -33,-29 l -1,-333 -1,-65 c 0,-3 0,-5 0,-6 v 0 c -2,-46 -32,-88 -72,-118 -39,-29 -87,-48 -129,-50 v 863 c -1,6 -5,10 -12,12 -7,2 -11,1 -17,-4 l -144,-229 -144,231 c -5,4 -11,7 -18,4 -7,-2 -10,-6 -11,-12 v -607 c 1,-42 67,-42 68,0 z"
         id="path788"
         style="fill:#a1a1a1;fill-opacity:1" />
      <path
         class="fil11"
         d="m 19605,25203 c -21,-33 -33,-70 -33,-112 v -393 c 3,-22 18,-30 33,-30 z"
         id="path790"
         style="fill:#a1a1a1;fill-opacity:1" />
      <path
         class="fil11"
         d="m 19090,24584 93,143 13,20 13,-20 93,-143 v 258 6 60 c -1,77 -1,98 -1,174 0,62 0,88 0,107 -1,35 -1,53 -1,133 v 15 h 16 37 c 69,0 145,-28 201,-76 20,-17 38,-36 51,-58 v -535 c -16,0 -33,12 -33,29 l -1,333 -1,65 c 0,3 0,5 0,6 v 0 c -2,46 -32,88 -72,118 -39,29 -87,48 -129,50 v -863 c -1,-6 -5,-10 -12,-12 -7,-2 -11,-1 -17,4 l -144,229 -144,-231 c -5,-4 -11,-7 -18,-4 -7,2 -10,6 -11,12 v 607 c 1,42 67,42 68,0 z"
         id="path792"
         style="fill:#a1a1a1;fill-opacity:1" />
      <path
         class="fil11"
         d="m 16838,24584 -93,143 -13,20 -13,-20 -93,-143 v 258 6 60 c 0,77 0,98 1,174 0,62 0,88 0,107 0,35 0,53 0,133 v 15 h -15 -38 c -68,0 -145,-28 -201,-76 -50,-43 -84,-101 -84,-170 v -393 c 7,-46 67,-34 67,-1 l 1,333 v 65 c 0,3 0,5 0,6 v 0 c 3,46 33,88 73,118 39,29 87,48 129,50 v -863 c 1,-6 5,-10 12,-12 7,-2 11,-1 17,4 l 144,229 144,-231 c 4,-4 11,-7 18,-4 6,2 9,6 11,12 v 607 c -1,42 -68,42 -68,0 z"
         id="path794"
         style="fill:#a1a1a1;fill-opacity:1" />
      <path
         class="fil11"
         d="m 17932,24230 -93,-143 -13,-20 -13,20 -93,143 v -258 -6 l 1,-60 c 0,-77 0,-98 0,-174 0,-62 0,-88 0,-107 1,-35 1,-53 1,-133 v -15 h -16 -37 c -69,0 -145,28 -201,76 -50,43 -85,101 -85,170 v 393 c 7,46 67,34 67,1 l 2,-333 v -65 c 0,-3 0,-5 0,-6 v 0 c 2,-46 32,-88 72,-118 39,-29 87,-48 129,-50 l 1,863 c 0,6 4,10 11,12 7,2 11,1 17,-4 l 144,-229 144,231 c 5,4 12,7 18,4 7,-2 10,-6 11,-12 v -607 c -1,-42 -67,-42 -67,0 z"
         id="path796"
         style="fill:#a1a1a1;fill-opacity:1" />
      <path
         class="fil11"
         d="m 16901,24230 93,-143 13,-20 13,20 93,143 v -258 -6 -60 c 0,-77 0,-98 -1,-174 0,-62 0,-88 0,-107 0,-35 0,-53 0,-133 v -15 h 15 38 c 68,0 145,28 201,76 50,43 84,101 84,170 v 393 c -7,46 -67,34 -67,1 l -1,-333 v -65 c 0,-3 0,-5 0,-6 v 0 c -3,-46 -33,-88 -73,-118 -39,-29 -87,-48 -129,-50 v 863 c -1,6 -5,10 -12,12 -7,2 -11,1 -17,-4 l -144,-229 -144,231 c -4,4 -11,7 -18,4 -6,-2 -9,-6 -11,-12 v -607 c 1,-42 68,-42 68,0 z"
         id="path798"
         style="fill:#a1a1a1;fill-opacity:1" />
      <path
         class="fil11"
         d="m 17932,24584 -93,143 -13,20 -13,-20 -93,-143 v 258 6 l 1,60 c 0,77 0,98 0,174 0,62 0,88 0,107 1,35 1,53 1,133 v 15 h -16 -37 c -69,0 -145,-28 -201,-76 -50,-43 -85,-101 -85,-170 v -393 c 7,-46 67,-34 67,-1 l 2,333 v 65 c 0,3 0,5 0,6 v 0 c 2,46 32,88 72,118 39,29 87,48 129,50 l 1,-863 c 0,-6 4,-10 11,-12 7,-2 11,-1 17,4 l 144,229 144,-231 c 5,-4 12,-7 18,-4 7,2 10,6 11,12 v 607 c -1,42 -67,42 -67,0 z"
         id="path800"
         style="fill:#a1a1a1;fill-opacity:1" />
      <path
         class="fil11"
         d="m 16901,24584 93,143 13,20 13,-20 93,-143 v 258 6 60 c 0,77 0,98 -1,174 0,62 0,88 0,107 0,35 0,53 0,133 v 15 h 15 38 c 68,0 145,-28 201,-76 50,-43 84,-101 84,-170 v -393 c -7,-46 -67,-34 -67,-1 l -1,333 v 65 c 0,3 0,5 0,6 v 0 c -3,46 -33,88 -73,118 -39,29 -87,48 -129,50 v -863 c -1,-6 -5,-10 -12,-12 -7,-2 -11,-1 -17,4 l -144,229 -144,-231 c -4,-4 -11,-7 -18,-4 -6,2 -9,6 -11,12 v 607 c 1,42 68,42 68,0 z"
         id="path802"
         style="fill:#a1a1a1;fill-opacity:1" />
      <path
         class="fil11"
         d="m 19027,22375 -93,-143 -13,-20 -13,20 -93,143 v -258 -6 -60 c 0,-77 0,-98 0,-174 1,-62 1,-88 1,-107 0,-35 0,-53 0,-133 v -15 h -15 -38 c -69,0 -145,28 -201,76 -50,43 -84,101 -84,170 l -1,393 c 8,46 68,34 68,1 l 1,-333 v -65 c 0,-3 0,-5 0,-6 v 0 c 3,-46 32,-88 73,-118 38,-29 86,-48 129,-50 v 863 c 1,6 5,10 12,12 7,2 11,1 16,-4 l 145,-229 144,231 c 4,4 11,7 18,4 6,-2 9,-6 10,-12 v -607 c -1,-42 -67,-42 -67,0 z"
         id="path804"
         style="fill:#a1a1a1;fill-opacity:1" />
      <path
         class="fil11"
         d="m 17996,22375 93,-143 12,-20 13,20 93,143 v -258 -6 -60 c 0,-77 0,-98 0,-174 0,-62 -1,-88 -1,-107 0,-35 0,-53 0,-133 v -15 h 15 38 c 69,0 145,28 201,76 50,43 84,101 84,170 l 1,393 c -8,46 -67,34 -68,1 l -1,-333 v -65 c 0,-3 0,-5 0,-6 v 0 c -3,-46 -32,-88 -72,-118 -39,-29 -87,-48 -130,-50 v 863 c -1,6 -5,10 -12,12 -7,2 -11,1 -16,-4 l -145,-229 -144,231 c -4,4 -11,7 -17,4 -7,-2 -10,-6 -11,-12 v -607 c 1,-42 67,-42 67,0 z"
         id="path806"
         style="fill:#a1a1a1;fill-opacity:1" />
      <path
         class="fil11"
         d="m 19027,22729 -93,143 -13,20 -13,-20 -93,-143 v 258 6 60 c 0,77 0,98 0,174 1,62 1,88 1,107 0,35 0,53 0,133 v 15 h -15 -38 c -69,0 -145,-28 -201,-76 -50,-43 -84,-101 -84,-170 l -1,-393 c 8,-46 68,-34 68,-1 l 1,333 v 65 c 0,3 0,5 0,6 v 0 c 3,46 32,88 73,118 38,29 86,48 129,50 v -863 c 1,-6 5,-10 12,-12 7,-2 11,-1 16,4 l 145,229 144,-231 c 4,-4 11,-6 18,-4 6,2 9,6 10,12 v 607 c -1,42 -67,42 -67,0 z"
         id="path808"
         style="fill:#a1a1a1;fill-opacity:1" />
      <path
         class="fil11"
         d="m 17996,22729 93,143 12,20 13,-20 93,-143 v 258 6 60 c 0,77 0,98 0,174 0,62 -1,88 -1,107 0,35 0,53 0,133 v 15 h 15 38 c 69,0 145,-28 201,-76 50,-43 84,-101 84,-170 l 1,-393 c -8,-46 -67,-34 -68,-1 l -1,333 v 65 c 0,3 0,5 0,6 v 0 c -3,46 -32,88 -72,118 -39,29 -87,48 -130,50 v -863 c -1,-6 -5,-10 -12,-12 -7,-2 -11,-1 -16,4 l -145,229 -144,-231 c -4,-4 -11,-6 -17,-4 -7,2 -10,6 -11,12 v 607 c 1,42 67,42 67,0 z"
         id="path810"
         style="fill:#a1a1a1;fill-opacity:1" />
      <path
         class="fil11"
         d="m 19605,21756 c -21,33 -33,71 -33,112 v 393 c 3,22 18,30 33,30 z"
         id="path812"
         style="fill:#a1a1a1;fill-opacity:1" />
      <path
         class="fil11"
         d="m 19090,22375 93,-143 13,-20 13,20 93,143 v -258 -6 -60 c -1,-77 -1,-98 -1,-174 0,-62 0,-88 0,-107 -1,-35 -1,-53 -1,-133 v -15 h 16 37 c 69,0 145,28 201,76 20,17 38,36 51,58 v 535 c -16,0 -33,-12 -33,-29 l -1,-333 -1,-65 c 0,-3 0,-5 0,-6 v 0 c -2,-46 -32,-88 -72,-118 -39,-29 -87,-48 -129,-50 v 863 c -1,6 -5,10 -12,12 -7,2 -11,1 -17,-4 l -144,-229 -144,231 c -5,4 -11,7 -18,4 -7,-2 -10,-6 -11,-12 v -607 c 1,-42 67,-42 68,0 z"
         id="path814"
         style="fill:#a1a1a1;fill-opacity:1" />
      <path
         class="fil11"
         d="m 19605,23348 c -21,-33 -33,-70 -33,-112 v -393 c 3,-22 18,-30 33,-30 z"
         id="path816"
         style="fill:#a1a1a1;fill-opacity:1" />
      <path
         class="fil11"
         d="m 19090,22729 93,143 13,20 13,-20 93,-143 v 258 6 60 c -1,77 -1,98 -1,174 0,62 0,88 0,107 -1,35 -1,53 -1,133 v 15 h 16 37 c 69,0 145,-28 201,-76 20,-17 38,-36 51,-58 v -535 c -16,0 -33,12 -33,29 l -1,333 -1,65 c 0,3 0,5 0,6 v 0 c -2,46 -32,88 -72,118 -39,29 -87,48 -129,50 v -863 c -1,-6 -5,-10 -12,-12 -7,-2 -11,-1 -17,4 l -144,229 -144,-231 c -5,-4 -11,-6 -18,-4 -7,2 -10,6 -11,12 v 607 c 1,42 67,42 68,0 z"
         id="path818"
         style="fill:#a1a1a1;fill-opacity:1" />
      <path
         class="fil11"
         d="m 17932,22729 -93,143 -13,20 -13,-20 -93,-143 v 258 6 l 1,60 c 0,77 0,98 0,174 0,62 0,88 0,107 1,35 1,53 1,133 v 15 h -16 -37 c -69,0 -145,-28 -201,-76 -50,-43 -85,-101 -85,-170 v -393 c 7,-46 67,-34 67,-1 l 2,333 v 65 c 0,3 0,5 0,6 v 0 c 2,46 32,88 72,118 39,29 87,48 129,50 l 1,-863 c 0,-6 4,-10 11,-12 7,-2 11,-1 17,4 l 144,229 144,-231 c 5,-4 12,-6 18,-4 7,2 10,6 11,12 v 607 c -1,42 -67,42 -67,0 z"
         id="path820"
         style="fill:#a1a1a1;fill-opacity:1" />
      <path
         class="fil11"
         d="m 19027,20879 -93,144 -13,19 -13,-19 -93,-144 v 258 6 60 c 0,77 0,99 0,174 1,62 1,88 1,107 0,35 0,53 0,133 v 15 h -15 -38 c -69,0 -145,-28 -201,-76 -50,-42 -84,-101 -84,-170 l -1,-393 c 8,-45 68,-34 68,-1 l 1,333 v 65 c 0,3 0,5 0,7 v 0 c 3,45 32,87 73,117 38,30 86,48 129,50 v -863 c 1,-5 5,-10 12,-12 7,-2 11,-1 16,4 l 145,230 144,-231 c 4,-5 11,-7 18,-5 6,2 9,7 10,13 v 606 c -1,42 -67,42 -67,0 z"
         id="path822"
         style="fill:#a1a1a1;fill-opacity:1" />
      <path
         class="fil11"
         d="m 19605,19906 c -21,33 -33,71 -33,112 v 394 c 3,21 18,30 33,29 z"
         id="path824"
         style="fill:#a1a1a1;fill-opacity:1" />
      <path
         class="fil11"
         d="m 19090,20525 93,-143 13,-20 13,20 93,143 v -258 -6 -60 c -1,-76 -1,-98 -1,-174 0,-62 0,-87 0,-106 0,-27 -1,-43 -1,-84 h 241 c 4,4 9,7 13,11 20,17 38,37 51,58 v 535 c -16,0 -33,-11 -33,-29 l -1,-333 -1,-65 c 0,-2 0,-4 0,-6 v 0 c -2,-46 -32,-87 -72,-118 -39,-29 -87,-48 -129,-50 v 863 c -1,6 -5,10 -12,12 -7,2 -11,1 -17,-3 l -144,-230 -144,231 c -5,5 -11,7 -18,4 -7,-2 -10,-6 -11,-12 v -607 c 1,-41 67,-42 68,0 z"
         id="path826"
         style="fill:#a1a1a1;fill-opacity:1" />
      <path
         class="fil11"
         d="m 19605,21498 c -21,-32 -33,-70 -33,-112 v -393 c 3,-21 18,-30 33,-30 z"
         id="path828"
         style="fill:#a1a1a1;fill-opacity:1" />
      <path
         class="fil11"
         d="m 19090,20879 93,144 13,19 13,-19 93,-144 v 258 6 60 c -1,77 -1,99 -1,174 0,62 0,88 0,107 -1,35 -1,53 -1,133 v 15 h 16 37 c 69,0 145,-28 201,-76 20,-17 38,-36 51,-58 v -535 c -16,0 -33,12 -33,29 l -1,333 -1,65 c 0,3 0,5 0,7 v 0 c -2,45 -32,87 -72,117 -39,30 -87,48 -129,50 v -863 c -1,-5 -5,-10 -12,-12 -7,-2 -11,-1 -17,4 l -144,230 -144,-231 c -5,-5 -11,-7 -18,-5 -7,2 -10,7 -11,13 v 606 c 1,42 67,42 68,0 z"
         id="path830"
         style="fill:#a1a1a1;fill-opacity:1" />
    </g>
  </g>
</svg>
